<?xml version="1.0" encoding="UTF-8" standalone="no"?>
<svg
   xmlns:dc="http://purl.org/dc/elements/1.1/"
   xmlns:cc="http://creativecommons.org/ns#"
   xmlns:rdf="http://www.w3.org/1999/02/22-rdf-syntax-ns#"
   xmlns:svg="http://www.w3.org/2000/svg"
   xmlns="http://www.w3.org/2000/svg"
   height="85.534698"
   width="550.32782"
   xml:space="preserve"
   viewBox="0 0 550.3278 85.534699"
   y="0px"
   x="0px"
   id="Mode_Isolation"
   version="1.1"><metadata
     id="metadata17"><rdf:RDF><cc:Work
         rdf:about=""><dc:format>image/svg+xml</dc:format><dc:type
           rdf:resource="http://purl.org/dc/dcmitype/StillImage" /><dc:title></dc:title></cc:Work></rdf:RDF></metadata><defs
     id="defs15" /><style
     id="style2"
     type="text/css">
	.st0{fill:#00ACE7;}
	.st1{fill:#13529F;}
	.st2{fill:#66C9EF;}
	.st3{fill:#647EBD;}
</style><path
     style="fill:#00ace7"
     id="path4"
     d="m 503.79115,58.242365 c -18.3,-26.4 -21.19999,-64.0000004 -2.1,-57.50000039 19.20001,6.59999999 46.3,26.20000039 2.1,57.50000039"
     class="st0" /><path
     style="fill:#13529f"
     id="path6"
     d="m 503.79115,58.242365 c -18.1,12 -42.8,13 -40,2 2.9,-11.6 14.7,-29.5 40,-2"
     class="st1" /><path
     style="fill:#66c9ef"
     id="path8"
     d="m 505.09116,60.342365 c 5.69999,9.7 19.59999,13.6 30.19999,3.3 14.4,-14 35.5,-44.5 -30.19999,-3.3"
     class="st2" /><path
     style="fill:#647ebd"
     id="path10"
     d="m 505.09116,60.342365 c -14.2,9.5 -25.60001,24.8 -18.7,24.7 7,-0.2 23.89999,-9.6 18.7,-24.7"
     class="st3" /><path
     style="fill:#1252a1;fill-opacity:1"
     id="path4-8"
     d="m 0,22.353698 h 38.803 v 10.591 H 12.234 v 15.887 h 22.369 v 10.591 H 12.234 v 25.017 H 0 Z" /><path
     style="fill:#1252a1;fill-opacity:1"
     id="path6-0"
     d="m 45.46801,35.866698 h 11.595 v 8.399 c 0,1.826 -0.183,3.379 -0.183,3.379 h 0.183 c 2.191,-6.939 7.943,-12.418 15.43,-12.418 1.095,0 2.191,0.183 2.191,0.183 v 11.87 c 0,0 -1.278,-0.183 -2.83,-0.183 -5.113,0 -10.956,2.921 -13.239,10.134 -0.73,2.374 -1.004,5.021 -1.004,7.852 v 19.174 h -12.143 z" /><path
     style="fill:#1252a1;fill-opacity:1"
     id="path8-4"
     d="m 101.892,34.678698 c 13.969,0 21.456,10.135 21.456,23.009 0,1.46 -0.274,4.656 -0.274,4.656 H 89.56601 c 0.73,8.49 7.304,12.873 14.51699,12.873 7.761,0 13.969,-5.295 13.969,-5.295 l 4.657,8.673 c 0,0 -7.396,6.939 -19.447,6.939 -16.06899,0 -26.02099,-11.596 -26.02099,-25.382 0,-14.973 10.225,-25.473 24.65099,-25.473 z m 9.313,19.447 c -0.183,-6.573 -4.292,-10.043 -9.587,-10.043 -6.20799,0 -10.49999,3.835 -11.59499,10.043 z" /><path
     style="fill:#1daae3"
     id="path10-2"
     d="m 370.315,34.678698 c 13.971,0 21.45701,10.135 21.45701,23.009 0,1.46 -0.27501,4.656 -0.27501,4.656 h -33.506 c 0.73,8.49 7.303,12.873 14.516,12.873 7.762,0 13.969,-5.295 13.969,-5.295 l 4.656,8.673 c 0,0 -7.395,6.939 -19.445,6.939 -16.07,0 -26.021,-11.596 -26.021,-25.382 0.09,-14.973 10.225,-25.473 24.649,-25.473 z m 9.312,19.447 c -0.182,-6.573 -4.291,-10.043 -9.586,-10.043 -6.209,0 -10.5,3.835 -11.596,10.043 z" /><path
     style="fill:#1daae3"
     id="path12"
     d="m 422.54,34.678698 c 13.969,0 21.455,10.135 21.455,23.009 0,1.46 -0.27299,4.656 -0.27299,4.656 H 410.214 c 0.73,8.49 7.305,12.873 14.51801,12.873 7.75999,0 13.96899,-5.295 13.96899,-5.295 l 4.65601,8.673 c 0,0 -7.39501,6.939 -19.44701,6.939 -16.068,0 -26.02,-11.596 -26.02,-25.382 -10e-4,-14.973 10.132,-25.473 24.65,-25.473 z m 9.31201,19.447 c -0.18201,-6.573 -4.291,-10.043 -9.58601,-10.043 -6.209,0 -10.5,3.835 -11.596,10.043 z" /><path
     style="fill:#1252a1;fill-opacity:1"
     id="path14"
     d="m 131.199,35.866698 h 11.595 v 5.569 c 0,1.826 -0.183,3.287 -0.183,3.287 h 0.183 c 2.1,-4.108 7.396,-10.044 17.165,-10.044 10.865,0 16.891,5.661 16.891,18.443 v 31.225 h -11.96 v -28.668 c 0,-5.935 -1.552,-9.86 -7.669,-9.86 -6.482,0 -11.23,4.108 -13.056,9.86 -0.639,2.009 -0.822,4.199 -0.822,6.482 v 22.277 H 131.2 v -48.571 z" /><path
     style="fill:#1252a1;fill-opacity:1"
     id="path16"
     d="m 209.079,34.678698 c 12.691,0 18.625,7.214 18.625,7.214 l -5.295,8.308 c 0,0 -5.021,-5.204 -12.691,-5.204 -8.947,0 -14.699,6.757 -14.699,15.064 0,8.218 5.935,15.248 15.156,15.248 8.217,0 14.243,-6.209 14.243,-6.209 l 4.657,8.582 c 0,0 -6.939,7.853 -19.995,7.853 -16.069,0 -26.294,-11.321 -26.294,-25.382 -0.002,-13.786 10.224,-25.474 26.293,-25.474 z" /><path
     style="fill:#1252a1;fill-opacity:1"
     id="path18"
     d="m 234.369,22.353698 h 12.052 v 17.896 c 0,2.373 -0.183,4.108 -0.183,4.108 h 0.183 c 2.374,-4.656 8.308,-9.587 16.708,-9.587 10.773,-0.092 16.891,5.569 16.891,18.352 v 31.225 h -11.961 v -28.669 c 0,-5.935 -1.553,-9.86 -7.669,-9.86 -6.391,0 -11.321,4.199 -13.147,10.043 -0.548,1.917 -0.73,4.017 -0.73,6.3 v 22.277 H 234.37 v -62.085 z" /><path
     style="fill:#1daae3"
     id="path20"
     d="m 291.614,22.353698 h 12.053 v 15.339 c 0,2.374 -0.184,4.108 -0.184,4.108 h 0.184 c 0,0 4.291,-7.03 14.516,-7.03 13.148,0 21.457,10.408 21.457,25.382 0,15.43 -9.404,25.382 -22.277,25.382 -10.043,0 -14.426,-7.213 -14.426,-7.213 h -0.092 c 0,0 0.184,1.461 0.184,3.286 v 2.739 h -11.414 v -61.993 z m 23.738,52.955 c 6.666,0 12.145,-5.387 12.145,-15.065 0,-9.221 -4.932,-15.247 -12.053,-15.247 -6.299,0 -12.143,4.565 -12.143,15.339 0,7.578 3.926,14.973 12.051,14.973 z" /></svg>